<svg xmlns="http://www.w3.org/2000/svg" width="340" height="210" viewBox="0 0 340 210" role="img" aria-label="multi-variable-r32.svg">
  <rect width="340" height="210" fill="#ffffff"/>
  
  <rect x="45" y="122" width="92" height="54" rx="6" fill="#f8f8f8" stroke="#d9d9d9" stroke-width="3"/>
  
    <circle cx="92" cy="149" r="27" fill="#f4f4f4" stroke="#d9d9d9" stroke-width="3"/>
    <circle cx="92" cy="149" r="8" fill="#b8babf"/>
    <path d="M92 141 C130 91,170 125,122 151 C110 157,96 152,92 141Z" fill="#b8babf" opacity=".95"/>
    <path d="M100 151 C160 165,134 223,93 180 C84 171,87 156,100 151Z" fill="#b8babf" opacity=".95"/>
    <path d="M86 156 C47 207,8 166,64 144 C77 139,88 143,86 156Z" fill="#b8babf" opacity=".95"/>
    <path d="M86 143 C26 123,60 73,96 119 C104 129,99 141,86 143Z" fill="#b8babf" opacity=".95"/>
    
  <rect x="172" y="42" width="94" height="24" rx="5" fill="#f0f1f2" stroke="#d9d9d9"/>
  <rect x="171" y="82" width="100" height="24" rx="5" fill="#f0f1f2" stroke="#d9d9d9"/>
  <rect x="170" y="124" width="105" height="24" rx="5" fill="#f0f1f2" stroke="#d9d9d9"/>
  <path d="M136 140 C160 130 160 54 172 54" stroke="#0eaae5" stroke-width="3" fill="none" stroke-dasharray="6 5"/>
  <path d="M137 144 C160 138 162 94 172 94" stroke="#0eaae5" stroke-width="3" fill="none" stroke-dasharray="6 5"/>
  <path d="M138 150 C163 150 165 137 171 137" stroke="#0eaae5" stroke-width="3" fill="none" stroke-dasharray="6 5"/>

</svg>